# xmcd
#
# Track frame offsets:
#	150
#	14666
#	31456
#	49987
#	69956
#	88959
#	110093
#	130436
#	150027
#	166203
#	184427
#
# Disc length: 2777 seconds
#
# Revision: 1
# Processed by: cddbd v1.5.2PL0 Copyright (c) Steve Scherf et al.
# Submitted via: audiograbber 1.83.01
#
DISCID=960ad70b
DTITLE=Armada - The Armada
DYEAR=2008
DGENRE=Blues Rock
TTITLE0=Going Down Blues
TTITLE1=Chinese Whispers
TTITLE2=Broken
TTITLE3=A Line in the Sand
TTITLE4=Morocco
TTITLE5=Black Snake Blues
TTITLE6=The Rosary
TTITLE7=Baby's Come Undone
TTITLE8=Closure
TTITLE9=Invocation
TTITLE10=I Want You
EXTD=
EXTT0=
EXTT1=
EXTT2=
EXTT3=
EXTT4=
EXTT5=
EXTT6=
EXTT7=
EXTT8=
EXTT9=
EXTT10=
PLAYORDER=
